<svg width="353" height="50" viewBox="0 0 353 50" fill="none" xmlns="http://www.w3.org/2000/svg">
<g clip-path="url(#clip0_1488_10777)">
<circle cx="-0.5" cy="25" r="25" fill="#F2F2F2"/>
<path d="M48.5 29.4573C50.7091 29.4573 52.5 27.4617 52.5 25.0001C52.5 22.5385 50.7091 20.543 48.5 20.543C46.2909 20.543 44.5 22.5385 44.5 25.0001C44.5 27.4617 46.2909 29.4573 48.5 29.4573Z" fill="#F2F2F2"/>
<path d="M64.5 29.4573C66.7091 29.4573 68.5 27.4617 68.5 25.0001C68.5 22.5385 66.7091 20.543 64.5 20.543C62.2909 20.543 60.5 22.5385 60.5 25.0001C60.5 27.4617 62.2909 29.4573 64.5 29.4573Z" fill="#F2F2F2"/>
<path d="M80.5 29.4573C82.7091 29.4573 84.5 27.4617 84.5 25.0001C84.5 22.5385 82.7091 20.543 80.5 20.543C78.2909 20.543 76.5 22.5385 76.5 25.0001C76.5 27.4617 78.2909 29.4573 80.5 29.4573Z" fill="#F2F2F2"/>
<path d="M96.5 29.4573C98.7091 29.4573 100.5 27.4617 100.5 25.0001C100.5 22.5385 98.7091 20.543 96.5 20.543C94.2909 20.543 92.5 22.5385 92.5 25.0001C92.5 27.4617 94.2909 29.4573 96.5 29.4573Z" fill="#F2F2F2"/>
<path d="M112.5 29.4573C114.709 29.4573 116.5 27.4617 116.5 25.0001C116.5 22.5385 114.709 20.543 112.5 20.543C110.291 20.543 108.5 22.5385 108.5 25.0001C108.5 27.4617 110.291 29.4573 112.5 29.4573Z" fill="#F2F2F2"/>
<path d="M128.5 29.4573C130.709 29.4573 132.5 27.4617 132.5 25.0001C132.5 22.5385 130.709 20.543 128.5 20.543C126.291 20.543 124.5 22.5385 124.5 25.0001C124.5 27.4617 126.291 29.4573 128.5 29.4573Z" fill="#F2F2F2"/>
<path d="M144.5 29.4573C146.709 29.4573 148.5 27.4617 148.5 25.0001C148.5 22.5385 146.709 20.543 144.5 20.543C142.291 20.543 140.5 22.5385 140.5 25.0001C140.5 27.4617 142.291 29.4573 144.5 29.4573Z" fill="#F2F2F2"/>
<path d="M160.5 29.4573C162.709 29.4573 164.5 27.4617 164.5 25.0001C164.5 22.5385 162.709 20.543 160.5 20.543C158.291 20.543 156.5 22.5385 156.5 25.0001C156.5 27.4617 158.291 29.4573 160.5 29.4573Z" fill="#F2F2F2"/>
<path d="M176.5 29.4573C178.709 29.4573 180.5 27.4617 180.5 25.0001C180.5 22.5385 178.709 20.543 176.5 20.543C174.291 20.543 172.5 22.5385 172.5 25.0001C172.5 27.4617 174.291 29.4573 176.5 29.4573Z" fill="#F2F2F2"/>
<path d="M192.5 29.4573C194.709 29.4573 196.5 27.4617 196.5 25.0001C196.5 22.5385 194.709 20.543 192.5 20.543C190.291 20.543 188.5 22.5385 188.5 25.0001C188.5 27.4617 190.291 29.4573 192.5 29.4573Z" fill="#F2F2F2"/>
<path d="M208.5 29.4573C210.709 29.4573 212.5 27.4617 212.5 25.0001C212.5 22.5385 210.709 20.543 208.5 20.543C206.291 20.543 204.5 22.5385 204.5 25.0001C204.5 27.4617 206.291 29.4573 208.5 29.4573Z" fill="#F2F2F2"/>
<path d="M224.5 29.4573C226.709 29.4573 228.5 27.4617 228.5 25.0001C228.5 22.5385 226.709 20.543 224.5 20.543C222.291 20.543 220.5 22.5385 220.5 25.0001C220.5 27.4617 222.291 29.4573 224.5 29.4573Z" fill="#F2F2F2"/>
<path d="M240.5 29.4573C242.709 29.4573 244.5 27.4617 244.5 25.0001C244.5 22.5385 242.709 20.543 240.5 20.543C238.291 20.543 236.5 22.5385 236.5 25.0001C236.5 27.4617 238.291 29.4573 240.5 29.4573Z" fill="#F2F2F2"/>
<path d="M256.5 29.4573C258.709 29.4573 260.5 27.4617 260.5 25.0001C260.5 22.5385 258.709 20.543 256.5 20.543C254.291 20.543 252.5 22.5385 252.5 25.0001C252.5 27.4617 254.291 29.4573 256.5 29.4573Z" fill="#F2F2F2"/>
<path d="M272.5 29.4573C274.709 29.4573 276.5 27.4617 276.5 25.0001C276.5 22.5385 274.709 20.543 272.5 20.543C270.291 20.543 268.5 22.5385 268.5 25.0001C268.5 27.4617 270.291 29.4573 272.5 29.4573Z" fill="#F2F2F2"/>
<path d="M288.5 29.4573C290.709 29.4573 292.5 27.4617 292.5 25.0001C292.5 22.5385 290.709 20.543 288.5 20.543C286.291 20.543 284.5 22.5385 284.5 25.0001C284.5 27.4617 286.291 29.4573 288.5 29.4573Z" fill="#F2F2F2"/>
<path d="M304.5 29.4573C306.709 29.4573 308.5 27.4617 308.5 25.0001C308.5 22.5385 306.709 20.543 304.5 20.543C302.291 20.543 300.5 22.5385 300.5 25.0001C300.5 27.4617 302.291 29.4573 304.5 29.4573Z" fill="#F2F2F2"/>
<circle cx="353.5" cy="25" r="25" fill="#F2F2F2"/>
</g>
<defs>
<clipPath id="clip0_1488_10777">
<rect width="353" height="50" fill="white"/>
</clipPath>
</defs>
</svg>
